<?xml version="1.0" standalone="no"?>
<!DOCTYPE svg PUBLIC "-//W3C//DTD SVG 20010904//EN"
 "http://www.w3.org/TR/2001/REC-SVG-20010904/DTD/svg10.dtd">
<svg version="1.0" xmlns="http://www.w3.org/2000/svg"
 width="1280.000000pt" height="1280.000000pt" viewBox="0 0 1280.000000 1280.000000"
 preserveAspectRatio="xMidYMid meet">

<g transform="translate(0.000000,1280.000000) scale(0.100000,-0.100000)"
fill="#000000" stroke="none">
<path d="M6040 12010 l0 -790 355 0 355 0 0 790 0 790 -355 0 -355 0 0 -790z"/>
<path d="M5670 12453 c-14 -2 -90 -13 -170 -24 -277 -39 -598 -112 -902 -204
-87 -26 -158 -52 -158 -56 0 -13 141 -259 149 -259 3 0 58 16 121 35 258 80
599 155 882 194 82 12 150 21 153 21 3 0 5 68 5 150 l0 150 -27 -1 c-16 -1
-39 -3 -53 -6z"/>
<path d="M7050 12310 c0 -82 3 -150 8 -150 4 0 85 -11 180 -25 407 -59 820
-166 1205 -312 65 -25 120 -43 121 -41 2 1 24 65 49 141 l46 138 -47 20 c-159
69 -612 208 -857 263 -193 44 -622 116 -690 116 -13 0 -15 -23 -15 -150z"/>
<path d="M4050 12225 c0 -57 683 -4873 693 -4887 30 -43 1352 -1616 1356
-1613 2 2 -253 1112 -565 2467 l-568 2463 -458 794 c-252 437 -458 786 -458
776z"/>
<path d="M8803 11558 c-122 -370 -250 -760 -285 -867 l-63 -194 -346 -366
-346 -366 -233 -885 c-128 -487 -367 -1396 -531 -2019 -164 -624 -297 -1136
-295 -1138 2 -2 915 1070 1280 1505 24 27 56 144 231 823 150 583 210 801 227
824 13 17 228 309 478 648 l454 615 127 859 c69 472 128 873 131 891 4 31 2
35 -56 69 -91 54 -523 273 -538 273 -10 0 -86 -219 -235 -672z"/>
<path d="M5680 11953 c-14 -2 -106 -17 -205 -33 -99 -17 -247 -45 -330 -64
-159 -36 -435 -113 -447 -125 -4 -3 23 -59 60 -124 55 -97 70 -117 87 -114 11
3 88 23 170 46 167 46 431 101 605 126 63 9 119 20 123 24 4 4 6 66 5 137 -3
141 -2 139 -68 127z"/>
<path d="M7050 11822 l0 -139 88 -12 c359 -50 759 -151 1101 -278 80 -30 153
-57 161 -59 12 -4 25 25 57 123 24 70 39 130 35 134 -17 15 -331 125 -497 174
-284 83 -594 149 -897 190 l-48 6 0 -139z"/>
<path d="M3640 11836 c-353 -179 -711 -409 -1048 -674 -14 -11 -4 -25 90 -119
l106 -106 117 87 c255 192 532 368 789 502 l143 74 -22 150 c-12 82 -24 152
-26 154 -3 3 -70 -28 -149 -68z"/>
<path d="M9860 11403 c-1 -5 -11 -78 -24 -163 -13 -85 -21 -158 -18 -161 30
-26 184 -139 190 -139 4 0 54 47 111 104 l103 103 -83 65 c-112 87 -265 198
-273 198 -3 0 -6 -3 -6 -7z"/>
<path d="M3705 11307 c-263 -146 -481 -288 -708 -460 l-67 -52 99 -98 98 -99
99 74 c167 126 398 275 617 397 33 19 57 39 57 49 1 36 -34 272 -40 272 -3 0
-73 -37 -155 -83z"/>
<path d="M1872 10927 l-252 -252 560 -560 560 -560 252 253 253 252 -560 560
-560 560 -253 -253z"/>
<path d="M10110 10615 l-555 -555 250 -250 250 -250 557 557 558 558 -247 247
c-137 137 -250 248 -253 248 -3 0 -255 -250 -560 -555z"/>
<path d="M9776 10828 c-3 -18 -10 -57 -15 -85 -4 -29 -5 -53 -2 -53 9 0 101
94 101 102 0 3 -18 20 -39 38 l-40 31 -5 -33z"/>
<path d="M5203 10468 c4 -13 112 -480 241 -1038 129 -558 356 -1539 504 -2180
149 -641 310 -1337 359 -1548 55 -239 91 -376 95 -365 4 10 118 497 253 1083
252 1090 355 1537 728 3148 144 622 210 922 201 922 -7 0 -276 -58 -600 -129
l-587 -129 -586 129 c-322 71 -592 129 -600 129 -9 0 -11 -7 -8 -22z m1295
-3419 c51 -117 91 -213 89 -215 -2 -3 -90 -3 -194 -2 l-190 3 95 213 c52 116
97 212 101 212 3 0 48 -95 99 -211z"/>
<path d="M1635 10206 c-6 -8 -56 -75 -112 -148 -414 -547 -754 -1216 -954
-1875 -106 -352 -182 -716 -225 -1075 l-6 -58 150 0 150 0 11 83 c95 682 257
1221 540 1802 169 347 363 664 585 959 l89 117 -104 105 c-57 57 -106 104
-109 104 -3 0 -10 -6 -15 -14z"/>
<path d="M11031 10116 l-103 -104 69 -88 c339 -432 661 -1021 850 -1554 138
-389 231 -762 286 -1155 l23 -160 149 0 150 0 -3 40 c-2 22 -15 117 -28 210
-150 1015 -565 1992 -1196 2813 -44 56 -82 102 -86 102 -4 0 -54 -47 -111
-104z"/>
<path d="M3300 9967 c0 -3 36 -182 80 -398 65 -316 78 -395 68 -405 -7 -7 -89
-64 -181 -128 l-169 -116 -199 0 c-151 0 -201 -3 -204 -12 -2 -7 -45 -384 -96
-838 l-93 -824 189 -561 c103 -308 228 -677 277 -820 l89 -260 202 -64 c111
-35 208 -66 216 -69 9 -3 12 0 8 9 -3 8 -101 232 -217 499 l-212 484 -10 156
c-22 355 13 751 93 1040 25 90 98 280 107 280 4 0 315 -277 692 -615 376 -337
685 -613 686 -612 7 8 -389 2774 -399 2783 -15 14 -927 477 -927 471z"/>
<path d="M1924 9763 c-430 -576 -730 -1187 -923 -1878 -61 -219 -144 -645
-153 -780 l-3 -50 135 0 135 0 12 80 c73 467 180 871 333 1251 65 161 224 490
314 649 85 150 254 407 353 538 l75 100 -99 99 -99 98 -80 -107z"/>
<path d="M10687 9772 l-96 -97 65 -85 c321 -423 613 -980 787 -1500 90 -269
172 -606 212 -875 9 -60 18 -122 21 -137 l6 -28 135 0 136 0 -7 68 c-11 108
-54 355 -91 519 -146 651 -413 1277 -782 1838 -100 151 -264 378 -281 389 -5
3 -52 -39 -105 -92z"/>
<path d="M8881 9162 l-284 -397 -134 -515 c-73 -283 -133 -518 -133 -522 0 -4
21 -10 48 -13 79 -11 251 -55 332 -86 362 -138 659 -408 834 -758 284 -565
183 -1272 -247 -1728 -45 -47 -73 -81 -62 -75 11 6 178 107 370 225 l350 215
196 213 197 214 236 626 235 627 -49 213 c-28 118 -54 222 -58 232 -5 14 -46
-55 -160 -273 l-152 -292 0 -132 0 -131 -140 -214 c-77 -118 -140 -210 -140
-205 0 5 138 564 307 1242 l306 1233 -18 32 c-63 111 -322 486 -335 487 -3 0
-52 -188 -109 -417 -56 -230 -105 -425 -108 -433 -4 -11 -60 330 -63 383 0 4
-91 7 -202 7 l-203 0 -182 127 -183 126 0 116 0 116 -78 78 c-42 42 -80 77
-82 77 -3 0 -133 -179 -289 -398z"/>
<path d="M8227 7330 c-10 -33 -17 -62 -17 -64 0 -2 18 -7 40 -10 22 -3 57 -9
79 -12 l38 -5 -49 -197 -49 -197 -92 0 c-51 0 -110 -3 -133 -7 l-41 -8 -18 61
c-10 33 -22 62 -26 65 -4 2 -26 -17 -48 -43 -41 -47 -43 -59 -26 -105 4 -10
-15 -27 -58 -52 -156 -92 -278 -258 -309 -422 -6 -33 -12 -65 -14 -71 -2 -9
-27 -13 -78 -13 l-74 0 -52 -57 -51 -58 125 -3 c140 -3 132 1 139 -80 l2 -34
-179 -64 c-99 -35 -185 -64 -192 -64 -7 0 -16 16 -20 35 -3 19 -10 35 -14 35
-5 0 -31 -27 -59 -60 l-50 -60 14 -40 c31 -87 5 -88 281 11 136 49 252 89 258
89 6 0 22 -20 35 -45 13 -24 48 -71 77 -104 30 -32 54 -62 54 -66 0 -4 -70
-103 -155 -221 -85 -117 -155 -217 -155 -221 0 -13 147 -107 225 -146 91 -45
208 -82 320 -103 135 -25 376 -16 508 19 209 55 374 149 534 302 169 161 282
351 340 572 34 131 43 364 19 499 -16 94 -61 250 -74 258 -4 2 -119 -36 -256
-85 -138 -49 -253 -89 -257 -89 -4 0 -21 26 -39 57 -18 31 -54 80 -81 108
l-48 51 161 223 c89 123 157 226 152 229 -103 72 -142 96 -209 129 -132 66
-330 123 -429 123 -31 0 -33 -3 -49 -60z m399 -180 c56 -26 104 -52 107 -57 4
-7 -199 -302 -227 -330 -7 -7 -116 50 -116 60 0 7 21 96 47 199 44 173 50 187
68 182 11 -3 66 -27 121 -54z m-291 -469 c176 -63 314 -227 345 -412 37 -218
-80 -448 -280 -548 -211 -106 -446 -67 -610 100 -97 99 -150 228 -150 369 0
232 169 447 396 505 81 20 221 14 299 -14z m879 -283 c9 -42 16 -93 16 -113
l0 -35 -204 0 -203 0 -7 51 c-4 28 -6 52 -4 53 18 13 375 132 380 127 3 -3 14
-41 22 -83z m16 -305 c0 -63 -35 -213 -69 -298 -36 -90 -89 -188 -100 -183
-21 9 -321 231 -321 238 0 4 13 36 29 71 16 35 34 91 40 124 7 33 14 66 16 73
3 9 53 12 205 12 l200 0 0 -37z m-353 -498 c62 -44 112 -83 113 -86 1 -15 -95
-111 -163 -163 -81 -62 -223 -146 -247 -146 -11 0 -33 53 -78 183 -34 100 -62
187 -62 192 0 6 25 23 54 38 30 16 81 53 113 82 l58 52 50 -36 c28 -20 101
-72 162 -116z m-993 -10 c31 -14 56 -27 56 -30 0 -7 -89 -365 -95 -382 -3 -8
-18 -6 -55 8 -69 26 -187 86 -195 99 -6 9 30 61 187 278 21 28 40 52 42 52 2
0 29 -11 60 -25z m502 -234 c35 -102 64 -188 64 -192 0 -27 -260 -53 -388 -39
-53 6 -98 12 -100 14 -2 2 15 75 38 163 23 87 46 175 51 196 l10 38 62 -5 c34
-4 87 -2 117 3 30 5 61 8 69 7 8 0 38 -73 77 -185z"/>
<path d="M8053 6521 c-138 -47 -229 -164 -241 -307 -21 -265 254 -460 495
-350 74 34 138 98 175 174 28 57 32 74 32 146 0 67 -5 92 -29 144 -74 164
-266 251 -432 193z m231 -158 c126 -89 121 -282 -9 -359 -56 -32 -112 -40
-169 -24 -191 53 -211 316 -31 402 60 28 154 20 209 -19z"/>
<path d="M0 6405 l0 -355 790 0 790 0 0 355 0 355 -790 0 -790 0 0 -355z"/>
<path d="M11210 6405 l0 -355 795 0 795 0 -2 353 -3 352 -792 3 -793 2 0 -355z"/>
<path d="M340 5733 c0 -10 12 -97 26 -193 152 -1052 566 -2032 1210 -2864 l76
-98 104 103 c57 57 104 107 104 110 0 4 -43 64 -95 133 -581 772 -961 1685
-1100 2637 -14 96 -25 177 -25 182 0 4 -67 7 -150 7 -136 0 -150 -2 -150 -17z"/>
<path d="M846 5698 c3 -29 19 -132 35 -228 148 -882 507 -1718 1046 -2432 41
-54 77 -98 81 -98 4 0 50 42 101 94 l94 94 -80 109 c-528 716 -859 1519 -989
2396 l-18 117 -138 0 -139 0 7 -52z"/>
<path d="M11676 5728 c-2 -13 -16 -97 -30 -188 -131 -826 -485 -1659 -988
-2322 -32 -42 -58 -81 -58 -85 0 -18 190 -197 199 -188 31 34 195 265 284 400
432 659 719 1404 843 2195 13 85 24 167 24 183 l0 27 -135 0 c-132 0 -135 0
-139 -22z"/>
<path d="M12150 5724 c0 -44 -40 -301 -71 -459 -167 -840 -539 -1670 -1048
-2340 -42 -54 -81 -107 -88 -115 -10 -14 5 -33 96 -124 l107 -107 126 168
c387 519 665 1040 880 1648 130 367 243 845 288 1220 6 50 13 100 16 113 l4
22 -155 0 -155 0 0 -26z"/>
<path d="M6120 5094 l0 -445 -176 218 c-97 120 -183 225 -190 233 -12 12 -21
8 -67 -37 -162 -158 -399 -293 -624 -357 -74 -21 -244 -56 -274 -56 -5 0 -9
-4 -9 -10 0 -5 225 -462 500 -1016 l500 -1007 -82 -96 c-192 -227 -213 -251
-221 -251 -10 0 -429 338 -444 358 -6 9 -140 383 -297 830 l-285 813 -57 52
c-32 28 -179 163 -328 299 -149 136 -272 246 -273 244 -2 -2 16 -45 40 -97 24
-52 335 -740 692 -1529 356 -789 653 -1440 659 -1447 6 -7 139 -93 294 -193
l284 -180 636 0 637 0 289 185 289 184 250 551 c137 303 247 553 245 555 -2 2
-179 -138 -393 -311 -215 -173 -393 -314 -397 -314 -9 0 -298 338 -298 349 0
4 225 461 500 1015 275 553 500 1008 500 1010 0 2 -24 7 -52 11 -164 21 -349
80 -509 161 -123 63 -211 123 -326 223 l-82 71 -48 -58 c-26 -32 -111 -136
-188 -231 l-140 -173 -5 444 -5 443 -130 -202 c-71 -111 -133 -202 -136 -202
-4 -1 -66 91 -139 204 -73 113 -134 205 -136 205 -2 0 -4 -201 -4 -446z"/>
<path d="M3264 4994 c10 -23 527 -1555 715 -2117 l136 -408 383 -244 c210
-134 382 -241 382 -238 0 13 -1263 2799 -1273 2810 -11 11 -278 177 -327 203
-21 11 -22 10 -16 -6z"/>
<path d="M9355 4903 l-171 -104 -633 -1402 c-349 -771 -636 -1406 -639 -1410
-7 -13 0 -9 398 246 l365 233 58 169 c185 538 797 2361 795 2366 -2 3 -80 -41
-173 -98z"/>
<path d="M9802 2997 l-252 -252 560 -560 560 -560 252 253 253 252 -560 560
-560 560 -253 -253z"/>
<path d="M2180 2685 l-555 -555 250 -250 250 -250 557 557 558 558 -247 247
c-137 137 -250 248 -253 248 -3 0 -255 -250 -560 -555z"/>
<path d="M3026 2111 l-98 -98 64 -50 c444 -347 1024 -659 1594 -856 319 -111
816 -225 1097 -253 l67 -7 0 136 0 135 -27 6 c-16 3 -77 12 -138 21 -377 56
-781 167 -1165 318 -208 82 -609 284 -803 404 -140 87 -379 251 -462 318 l-31
24 -98 -98z"/>
<path d="M9590 2148 c-371 -287 -896 -572 -1375 -746 -333 -120 -713 -216
-1040 -262 -141 -20 -125 -1 -125 -155 l0 -135 28 0 c15 0 97 11 182 24 791
124 1536 411 2195 843 135 89 366 253 400 284 10 10 -171 199 -190 198 -5 0
-39 -23 -75 -51z"/>
<path d="M2681 1766 c-57 -57 -101 -109 -97 -114 4 -6 70 -59 149 -118 727
-547 1552 -918 2447 -1103 139 -28 442 -76 525 -83 l40 -3 0 150 0 149 -160
23 c-393 55 -766 148 -1155 286 -532 189 -1122 511 -1552 849 -48 37 -89 68
-90 68 -2 0 -50 -47 -107 -104z"/>
<path d="M9900 1788 c-768 -589 -1727 -990 -2682 -1120 l-168 -23 0 -153 0
-152 23 4 c12 3 63 10 112 16 270 33 604 102 895 185 770 221 1472 584 2128
1100 9 8 -14 36 -95 117 l-108 107 -105 -81z"/>
<path d="M6042 593 l3 -588 353 -3 352 -2 0 590 0 590 -355 0 -355 0 2 -587z"/>
</g>
</svg>
