<?xml version="1.0" standalone="no"?>
<!DOCTYPE svg PUBLIC "-//W3C//DTD SVG 20010904//EN"
 "http://www.w3.org/TR/2001/REC-SVG-20010904/DTD/svg10.dtd">
<svg version="1.0" xmlns="http://www.w3.org/2000/svg"
 width="1000.000000pt" height="407.000000pt" viewBox="0 0 1000.000000 407.000000"
 preserveAspectRatio="xMidYMid meet">

<g transform="translate(0.000000,407.000000) scale(0.100000,-0.100000)"
fill="#000000" stroke="none">
<path d="M9605 3878 c-321 -186 -653 -378 -810 -468 l-150 -86 -3 -427 c-1
-235 -1 -427 1 -427 2 0 74 41 160 90 86 50 159 90 164 90 4 0 8 -576 8 -1281
l0 -1280 409 1 c226 0 411 2 413 4 2 1 2 878 1 1948 l-3 1946 -190 -110z"/>
<path d="M6595 3625 c-578 -91 -1076 -460 -1333 -987 -29 -59 -52 -111 -52
-117 0 -8 -151 -11 -497 -11 l-497 0 69 70 69 70 331 0 330 0 165 165 165 165
-190 0 -189 0 67 68 c37 37 67 71 67 75 0 4 -332 7 -738 7 l-737 0 -80 -80
-80 -80 -125 0 -124 0 72 73 c39 40 72 76 72 80 0 4 -546 7 -1214 7 l-1214 0
-363 -257 -363 -258 117 -5 118 -5 -76 -75 c-41 -41 -75 -78 -75 -82 0 -5 284
-8 632 -8 l632 0 -39 -40 -39 -40 -518 0 c-285 0 -518 -3 -518 -8 0 -4 115
-122 256 -261 l255 -254 -125 -126 -126 -126 0 -183 0 -182 2253 0 2253 0 32
-76 c67 -162 200 -360 337 -503 307 -321 718 -518 1142 -547 l93 -7 0 345 0
344 -90 12 c-172 23 -370 103 -501 202 -37 27 -104 89 -150 137 l-83 88 170 3
169 2 643 643 642 642 -812 5 -813 5 93 97 c185 191 383 293 646 331 l87 12 2
343 2 342 -70 -1 c-38 -1 -106 -7 -150 -14z m-5515 -608 c0 -2 -47 -37 -104
-78 l-105 -74 46 -3 47 -3 -155 -155 -154 -154 -60 0 -60 0 120 120 c66 66
117 120 114 120 -3 0 -30 -18 -59 -40 -48 -36 -60 -40 -112 -40 -32 0 -58 3
-58 8 0 4 94 73 208 154 l207 147 63 1 c34 0 62 -2 62 -3z m470 -32 l-34 -35
-148 0 c-145 0 -150 -1 -176 -25 l-27 -25 148 0 c81 0 147 -4 147 -9 0 -15
-64 -66 -184 -146 l-116 -77 0 -59 0 -59 -45 0 c-41 0 -45 2 -45 25 0 31 -2
31 -49 0 -34 -23 -47 -26 -111 -23 l-73 3 116 78 c117 77 117 77 117 117 0 22
-3 40 -7 40 -4 0 -62 -54 -129 -121 l-120 -120 -51 3 -50 3 226 233 226 232
209 0 210 0 -34 -35z m800 0 l-34 -35 -180 0 c-164 0 -183 -2 -206 -20 l-25
-20 185 0 185 0 -180 -180 -180 -180 -317 0 -318 0 0 37 c0 35 10 48 142 180
l143 143 95 0 c78 0 100 4 125 20 l30 20 -104 0 -105 0 34 35 34 35 355 0 355
0 -34 -35z m708 -20 l-56 -55 -316 0 c-174 0 -316 3 -316 7 0 4 21 29 47 55
l47 48 326 0 325 0 -57 -55z m657 -75 l-130 -130 -75 0 -75 0 -105 -105 -105
-105 -90 0 -90 0 98 98 c53 53 97 101 97 105 0 4 -68 7 -150 5 -83 -2 -150 -1
-150 2 0 2 21 26 47 52 l47 48 236 0 235 0 80 80 80 80 90 0 90 0 -130 -130z
m625 -105 l-235 -235 -90 0 -90 0 98 98 c53 53 97 101 97 105 0 4 -37 7 -82 7
l-82 0 39 40 39 40 90 0 c88 0 91 1 123 32 18 18 33 34 33 37 0 4 -64 5 -143
3 l-143 -3 -74 -74 -74 -75 -91 0 -90 0 130 130 130 130 325 0 325 0 -235
-235z m345 205 c-24 -26 -36 -30 -79 -30 l-50 0 29 30 c24 26 36 30 79 30 l50
0 -29 -30z m140 0 c-24 -26 -36 -30 -79 -30 l-50 0 29 30 c24 26 36 30 79 30
l50 0 -29 -30z m209 -170 l-60 -61 -287 -2 c-158 -1 -287 0 -287 3 0 2 26 30
57 62 l57 58 291 0 290 0 -61 -60z m-2234 -115 l-155 -155 -225 0 -224 0 49
50 49 50 136 0 136 0 49 50 c36 37 45 51 34 55 -9 3 -111 4 -227 3 -117 -2
-212 -1 -212 2 0 2 21 26 47 52 l47 48 326 0 325 0 -155 -155z m-820 -400
l-74 -75 444 0 445 0 -245 -245 -246 -245 -181 2 -182 3 99 100 c54 55 99 103
100 108 0 4 -114 7 -253 7 l-252 0 -170 -170 -170 -170 410 0 410 0 -135 -135
-135 -135 -507 0 -508 0 0 92 0 93 212 212 213 213 -120 0 -120 0 -135 135
-135 135 390 0 391 0 74 75 74 75 190 0 190 0 -74 -75z m660 68 c0 -4 -17 -24
-37 -45 l-37 -38 -105 0 -105 0 44 45 44 45 98 0 c54 0 98 -3 98 -7z m290 0
c0 -4 -17 -24 -37 -45 l-37 -38 -105 0 -105 0 44 45 44 45 98 0 c54 0 98 -3
98 -7z m940 -416 l0 -424 -90 -91 -91 -92 -799 0 c-440 0 -800 3 -800 7 0 5
228 236 507 515 l508 508 382 0 383 0 0 -423z m1890 415 c0 -4 -228 -236 -508
-515 l-507 -507 -190 0 -190 0 373 373 c204 204 372 375 372 380 0 4 -193 7
-430 7 l-430 0 0 -105 0 -106 -132 3 -133 3 -3 238 -2 237 890 0 c489 0 890
-3 890 -8z m750 -127 l-135 -135 -347 0 c-192 0 -348 3 -348 7 0 4 57 65 127
135 l128 128 355 0 355 0 -135 -135z m280 -380 l-515 -515 -545 0 -545 0 135
135 135 135 355 0 355 0 380 380 380 380 190 0 190 0 -515 -515z"/>
<path d="M1160 2799 l0 -30 31 18 c54 32 57 43 10 43 -39 0 -41 -1 -41 -31z"/>
<path d="M1502 2730 l-110 -110 42 0 c39 0 46 5 151 110 l110 110 -42 0 c-39
0 -47 -5 -151 -110z"/>
<path d="M1775 2820 c-18 -20 -17 -20 29 -20 49 0 86 13 86 30 0 6 -22 10 -48
10 -36 0 -54 -5 -67 -20z"/>
<path d="M1885 2730 l-110 -110 45 0 c44 0 48 3 155 110 l110 110 -45 0 c-44
0 -48 -3 -155 -110z"/>
<path d="M1685 2730 c-18 -20 -17 -20 36 -20 50 0 79 12 79 32 0 4 -22 8 -48
8 -36 0 -54 -5 -67 -20z"/>
<path d="M1590 2635 c-11 -13 -5 -15 43 -15 36 0 59 5 67 15 11 13 5 15 -43
15 -36 0 -59 -5 -67 -15z"/>
<path d="M2977 1872 c-130 -130 -237 -240 -237 -245 0 -4 194 -7 430 -7 l430
0 0 245 0 245 -193 0 -192 0 -238 -238z"/>
<path d="M6910 3297 l0 -343 94 -12 c354 -48 661 -264 822 -579 183 -360 160
-766 -63 -1101 -174 -262 -478 -447 -785 -478 l-68 -6 0 -344 0 -344 53 0
c169 0 456 73 652 164 476 223 840 663 969 1171 223 882 -255 1794 -1107 2109
-158 59 -383 105 -509 106 l-58 0 0 -343z"/>
<path d="M2177 1065 c-27 -55 -33 -75 -23 -75 8 0 18 5 21 10 3 6 24 10 46 10
21 0 39 -4 39 -10 0 -5 7 -10 15 -10 8 0 15 4 15 8 0 8 -69 142 -73 142 -2 0
-19 -34 -40 -75z m57 -10 c4 -10 -1 -15 -14 -15 -13 0 -18 5 -14 15 4 8 10 15
14 15 4 0 10 -7 14 -15z"/>
<path d="M1760 1060 c0 -56 3 -70 15 -70 9 0 15 9 15 25 0 32 5 31 34 -1 30
-36 55 -28 27 8 -26 33 -26 50 -1 73 11 10 20 22 20 27 0 18 -32 7 -55 -19
l-24 -28 -1 28 c0 17 -5 27 -15 27 -12 0 -15 -14 -15 -70z"/>
<path d="M2580 1060 c0 -56 3 -70 15 -70 10 0 15 11 15 35 0 37 8 43 28 23 9
-9 15 -9 24 0 20 20 28 14 28 -23 0 -24 5 -35 15 -35 12 0 15 14 15 70 0 39
-2 70 -5 70 -3 0 -19 -10 -35 -22 l-30 -22 -30 22 c-16 12 -32 22 -35 22 -3 0
-5 -31 -5 -70z"/>
<path d="M3030 1060 l0 -70 50 0 c38 0 50 4 50 15 0 11 -11 15 -36 15 -45 0
-42 24 4 28 46 5 43 32 -3 32 -19 0 -35 5 -35 10 0 6 16 10 35 10 24 0 35 5
35 15 0 11 -12 15 -50 15 l-50 0 0 -70z"/>
<path d="M3440 1061 c0 -56 3 -71 15 -71 10 0 15 10 15 30 0 35 10 38 36 9 10
-11 27 -25 36 -30 16 -9 18 -3 18 61 0 56 -3 70 -15 70 -10 0 -15 -10 -15 -30
0 -16 -3 -30 -6 -30 -3 0 -24 14 -45 31 l-39 31 0 -71z"/>
<path d="M4200 1059 c0 -62 2 -70 18 -67 11 2 16 11 14 26 -5 31 26 29 34 -3
4 -16 13 -25 26 -25 15 0 18 5 13 23 -9 29 -9 28 -1 60 12 39 -7 57 -60 57
l-44 0 0 -71z m69 38 c12 -15 5 -27 -16 -27 -7 0 -13 9 -13 20 0 23 13 26 29
7z"/>
<path d="M4610 1060 c0 -56 3 -70 15 -70 12 0 15 14 15 70 0 56 -3 70 -15 70
-12 0 -15 -14 -15 -70z"/>
<path d="M4950 1060 l0 -70 45 0 c56 0 85 25 85 74 0 44 -29 66 -87 66 l-43 0
0 -70z m88 28 c18 -18 14 -46 -7 -58 -33 -17 -41 -11 -41 30 0 32 4 40 18 40
10 0 23 -5 30 -12z"/>
<path d="M6530 1115 c0 -9 9 -15 25 -15 28 0 31 -7 12 -35 -8 -11 -22 -32 -32
-47 l-17 -28 66 0 c52 0 66 3 66 15 0 10 -10 15 -30 15 -38 0 -38 10 0 66 l31
44 -61 0 c-47 0 -60 -3 -60 -15z"/>
<path d="M6940 1059 l0 -70 52 3 c60 4 81 28 24 28 -26 0 -36 4 -36 16 0 12 8
15 33 12 23 -2 32 1 32 12 0 10 -12 16 -32 18 -44 4 -42 22 2 22 24 0 35 5 35
15 0 12 -13 15 -55 15 l-55 0 0 -71z"/>
<path d="M7350 1059 c0 -62 2 -70 18 -67 9 2 18 13 20 26 4 30 20 28 28 -3 4
-16 13 -25 26 -25 15 0 18 5 13 23 -9 29 -9 28 -1 60 12 39 -7 57 -60 57 l-44
0 0 -71z m69 42 c16 -10 6 -31 -15 -31 -8 0 -14 9 -14 20 0 22 7 25 29 11z"/>
<path d="M8596 1108 c-36 -51 -5 -118 54 -118 40 0 70 31 70 73 0 43 -26 67
-73 67 -26 0 -40 -6 -51 -22z m84 -23 c26 -32 -13 -81 -47 -59 -35 22 -23 74
17 74 10 0 23 -7 30 -15z"/>
</g>
</svg>
